<?xml version="1.0" encoding="UTF-8" standalone="no"?>
<svg xmlns:rdf="http://www.w3.org/1999/02/22-rdf-syntax-ns#" xmlns="http://www.w3.org/2000/svg" height="653.45mm" width="735.54mm" version="1.1" xmlns:cc="http://creativecommons.org/ns#" xmlns:xlink="http://www.w3.org/1999/xlink" viewBox="0 0 2606.243 2315.3601" xmlns:dc="http://purl.org/dc/elements/1.1/">
<defs>
<pattern id="a" xlink:href="#b" patternTransform="matrix(.84495 -.53485 .53485 .84495 -350.56 -901.95)"/>
<pattern id="b" width="380.00007" patternUnits="userSpaceOnUse" patternTransform="translate(-350.56 -901.95)" height="297.14261">
<path d="m0 0.00003v21.137c7.5387 6.5392 11.885 15.431 14.141 18.59 11.943 16.724 20.79 35.261 24.73 45.217 0.76954 2.0159 1.4673 3.9914 2.0723 5.9082 0.0379 0.14692 0.0742 0.29172 0.10156 0.41601-0.0798 0.0143-0.15673 0.0321-0.23633 0.0469-14.179 1.286-31.519 15.935-38.854 31.145-0.7616 1.53-1.4111 3.02-1.955 4.46v10.434c4.122-2.5505 12.107-7.6996 19.281-7.4062 0.60158 0.0249 1.1803 0.0579 1.748 0.0937 1.7462 0.1344 3.4877 0.30391 5.2363 0.47461 4.6992 0.51836 8.9084 1.107 15.021 0.73828 9.1731-0.54729 15.383-2.2125 27.617-1.2051 19.053 1.574 23.447 7.4732 34.625 13.76 0.0769-4.6129-0.35275-8.8244-1.2617-12.719-0.9068-5.5256-2.7684-10.084-7.6328-16.08-1.6612-2.1758-3.5465-4.2537-5.6504-6.2598-5.2321-5.3291-10.251-8.6223-14.654-11.072-0.179-0.103-0.351-0.212-0.528-0.322-0.491-0.305-1.115-0.611-1.803-0.92-7.384-3.877-12.619-5.851-13.424-12.661-0.33-2.419-1.077-41.504-15.732-83.771h-42.846zm248.61 0c2.2192 1.5351 4.6708 2.9762 7.3887 4.2988 0.14229-0.76801 0.12234-2.3617 0.11132-4.2988h-7.5zm92.436 0c7.0356 3.8743 14.837 8.1656 21.311 11.451 0.99645 0.51708 1.8819 0.95901 2.6582 1.3262 2.3258 1.1414 4.437 2.1234 6.1504 2.8203 3.3469 1.3606 6.276 3.3151 8.8398 5.5391l-0.01-21.136h-38.959zm-58.898 26.195c-49.561-0.11624-83.169 20.071-87.799 22.512-11.231-1.8065-24.623-3.8315-30.348-1.4922-5.9814 2.2473-9.8925 10.936-9.7617 10.936 0.1259 0 17.435 4.7841-3.168 27.596-48.98 55.576-50.4 142.94-50.898 146.6-0.80533 6.8093-6.0403 8.7855-13.424 12.662-0.68812 0.3089-1.3124 0.61357-1.8027 0.91797-0.17735 0.1101-0.34953 0.22183-0.52539 0.33203-4.4038 2.45-9.4222 5.7413-14.654 11.07-2.1039 2.0061-3.9892 4.0858-5.6504 6.2617-4.8644 5.9959-6.726 10.552-7.6328 16.078-0.90897 3.8943-1.3386 8.1058-1.2617 12.719 11.178-6.2865 15.572-12.186 34.625-13.76 12.234-1.0074 18.444 0.65973 27.617 1.207 6.1131 0.3688 10.322-0.22183 15.021-0.74023 1.7487-0.1707 3.4921-0.34021 5.2383-0.47461 0.56775-0.036 1.1465-0.0687 1.748-0.0937 8.2916-0.3391 17.687 6.6064 20.922 8.3887 0.90392-3.6939-0.42781-9.5335-3.5977-15.875-7.3351-15.212-24.675-29.862-38.854-31.148-0.0796-0.015-0.15653-0.0329-0.23633-0.0469 0.0274-0.1242 0.0656-0.27107 0.10351-0.41797 0.60501-1.9168 1.3008-3.8904 2.0703-5.9062 3.9402-9.9556 12.788-28.493 24.73-45.217 3.0222-4.233 9.7923-18.767 22.98-24.129 1.7134-0.69689 3.8246-1.6809 6.1504-2.8223 0.77631-0.36716 1.6618-0.80909 2.6582-1.3262 13.343-6.7721 32.417-17.857 38.52-20.631 21.155-9.6187 49.25-23.702 61.363-32.119-0.26154 2.1988-2.2511 5.5632-4.5371 9.1133 13.59 11.784 10.307 32.668 11.014 36.484 27.728-13.493 28.672-38.973 19.736-57.475 4.9388-3.7124 11.283-5.7509 17.789-6.9727 2.0756-0.38483 4.1747-0.69035 6.2559-0.94727 10.383-1.2583 20.157-1.1222 24.195-3.0976 3.3612-1.8598 3.7222-3.4443 4.1426-5.7109 0.49448-2.6638-1.1259-3.4432-1.1758-3.4141-0.005 0.003-0.0106 0.005-0.0156 0.008-0.4379-0.23793-0.88481-0.29521-1.1328-0.31641 0.19421-0.20826 0.58977-0.71299 0.75977-1.6816-0.10365-1.884-8.6968-7.3084-9.4102-7.8848 0.007-0.0195 0.0507-0.15685 0.0723-0.21875 0.0543 0.035 0.11221 0.0663 0.16601 0.10156 3.3925-12.062-1.5457-22.823-14.148-29.754-0.0414-0.023-0.0855-0.0455-0.12696-0.0684-0.32451-0.17707-0.64983-0.35342-0.98437-0.52539-9.394-4.8916-24.044-8.4634-46.734-8.7168zm97.85 100.72c-1.7197 4.5625-2.3293 8.6096-1.6426 11.416 0.43596-0.24017 1.0006-0.58521 1.6426-0.98242v-10.434zm-123.4 47.842c-22.69 0.25336-37.338 3.8252-46.732 8.7168-0.33454 0.17197-0.66182 0.34832-0.98633 0.52539-0.0415 0.0229-0.0856 0.0454-0.12695 0.0684-12.603 6.9307-17.541 17.692-14.148 29.754 0.0538-0.0353 0.11173-0.0666 0.16602-0.10156 0.0216 0.0619 0.0649 0.1993 0.0723 0.21875-0.71338 0.57635-9.3065 6.0008-9.4102 7.8848 0.17 0.96865 0.56555 1.4734 0.75976 1.6816-0.24801 0.0212-0.69491 0.0785-1.1328 0.3164-0.005-0.003-0.0103-0.005-0.0156-0.008-0.0499-0.0291-1.6703 0.75028-1.1758 3.4141 0.42041 2.2666 0.78138 3.8511 4.1426 5.7109 4.0381 1.9755 13.812 1.8394 24.195 3.0977 2.0811 0.25692 4.1803 0.56243 6.2559 0.94726 6.5059 1.2218 12.85 3.2622 17.789 6.9746-8.0599 16.688-8.0709 39.05 12.35 53.176h7.5c-0.0437-7.6895 0.0451-22.775 10.9-32.188-2.286-3.5501-4.2756-6.9144-4.5371-9.1133 12.113 8.4175 40.208 22.5 61.363 32.119 3.1424 1.4282 9.7453 5.0695 17.213 9.1816h38.955v-73.336c-3.955-7.4987-2.3413-11.893 0-14.338v-9.8027c-1.4686-1.6374-3.2383-3.125-5.25-3.8809-5.7247-2.3393-19.116-0.31433-30.348 1.4922-4.6302-2.441-38.238-22.628-87.799-22.512zm-256.6 24.91v9.8027c1.9796-2.0672 4.4662-2.748 4.5137-2.748 0.0868 0-1.6156-3.8236-4.5137-7.0547zm0 24.141v73.336h42.846c-7.49-21.61-18.602-44.04-35.166-62.83-3.659-4.05-6.104-7.53-7.68-10.51z" fill="#008080"/>
</pattern>
</defs>
<g transform="translate(1384.1 1424.5)">
<path d="m-750.44-1423.4c-197.12 2.201-324.38 33.237-405.99 75.733-2.9064 1.4941-5.7427 3.0192-8.5615 4.5575-0.3609 0.1993-0.7407 0.395-1.0996 0.5947-109.49 60.21-152.38 153.7-122.91 258.49 0.4679-0.307 0.96-0.5886 1.4315-0.8921 0.1866 0.538 0.5648 1.7328 0.6293 1.9018-6.1977 5.007-80.849 52.132-81.75 68.5 1.4769 8.4151 4.9103 12.797 6.5976 14.606-2.1546 0.18447-6.0369 0.69194-9.841 2.7594-0.043-0.0248-0.082-0.0457-0.1247-0.069-0.4333-0.25246-14.51 6.5197-10.214 29.661 3.6522 19.691 6.7818 33.449 35.982 49.606 35.081 17.162 119.99 15.977 210.19 26.909 18.08 2.232 36.319 4.8933 54.35 8.2366 56.519 10.614 111.64 28.329 154.55 60.581-77.629 160.73-69.422 382.09 171.46 499.31 6.143-33.155-22.386-214.59 95.678-316.96-19.86-30.841-37.154-60.082-39.426-79.184 105.23 73.127 349.31 195.48 533.1 279.05 53.016 24.095 218.71 120.39 334.63 179.23 8.6563 4.4922 16.361 8.3318 23.105 11.521 20.205 9.9155 38.538 18.455 53.423 24.509 114.57 46.578 173.39 172.85 199.65 209.62 103.75 145.29 180.62 306.33 214.85 392.82 6.6854 17.513 12.731 34.669 17.988 51.321 0.32929 1.2764 0.66072 2.544 0.89901 3.6238-0.69294 0.12428-1.3763 0.273-2.0678 0.4011-123.17 11.172-273.8 138.46-337.53 270.62-27.538 55.092-39.118 105.82-31.266 137.91 28.106-15.484 109.74-75.823 181.77-72.877 5.2266 0.21599 10.254 0.50422 15.187 0.81616 15.17 1.1674 30.314 2.639 45.505 4.1219 40.825 4.5029 77.391 9.6282 130.5 6.4244 79.691-4.7546 133.63-19.229 239.91-10.477 165.52 13.675 203.69 64.923 300.8 119.54 0.6682-40.075-3.0645-76.666-10.961-110.5-7.8779-48.004-24.041-87.6-66.3-139.69-14.431-18.902-30.81-36.957-49.087-54.385-45.454-46.296-89.06-74.899-127.32-96.183-1.5279-0.95743-3.0168-1.9206-4.5574-2.8769-4.26-2.6451-9.6792-5.2971-15.657-7.9807-64.11-33.27-109.6-50.43-116.59-109.59-4.34-31.77-16.67-790.73-442.18-1273.6-178.99-198.11-28.61-239.71-27.51-239.71 1.136 0-32.857-75.484-84.82-95.007-49.733-20.322-166.07-2.7342-263.65 12.96-40.224-21.206-332.19-196.58-762.75-195.57z" stroke="#6fd7ff" stroke-width="2.1119" fill="#b5eaff"/>
<path id="body" d="m-750.44-1423.4c-197.12 2.201-324.38 33.237-405.99 75.733-2.9064 1.4941-5.7427 3.0192-8.5615 4.5575-0.3609 0.1993-0.7407 0.395-1.0996 0.5947-109.49 60.21-152.38 153.7-122.91 258.49 0.4679-0.307 0.96-0.5886 1.4315-0.8921 0.1866 0.538 0.5648 1.7328 0.6293 1.9018-6.1977 5.007-80.849 52.132-81.75 68.5 1.4769 8.4151 4.9103 12.797 6.5976 14.606-2.1546 0.18447-6.0369 0.69194-9.841 2.7594-0.043-0.0248-0.082-0.0457-0.1247-0.069-0.4333-0.25246-14.51 6.5197-10.214 29.661 3.6522 19.691 6.7818 33.449 35.982 49.606 35.081 17.162 119.99 15.977 210.19 26.909 18.08 2.232 36.319 4.8933 54.35 8.2366 56.519 10.614 111.64 28.329 154.55 60.581-77.629 160.73-69.422 382.09 171.46 499.31 6.143-33.155-22.386-214.59 95.678-316.96-19.86-30.841-37.154-60.082-39.426-79.184 105.23 73.127 349.31 195.48 533.1 279.05 53.016 24.095 218.71 120.39 334.63 179.23 8.6563 4.4922 16.361 8.3318 23.105 11.521 20.205 9.9155 38.538 18.455 53.423 24.509 114.57 46.578 173.39 172.85 199.65 209.62 103.75 145.29 180.62 306.33 214.85 392.82 6.6854 17.513 12.731 34.669 17.988 51.321 0.32929 1.2764 0.66072 2.544 0.89901 3.6238-0.69294 0.12428-1.3763 0.273-2.0678 0.4011-123.17 11.172-273.8 138.46-337.53 270.62-27.538 55.092-39.118 105.82-31.266 137.91 28.106-15.484 109.74-75.823 181.77-72.877 5.2266 0.21599 10.254 0.50422 15.187 0.81616 15.17 1.1674 30.314 2.639 45.505 4.1219 40.825 4.5029 77.391 9.6282 130.5 6.4244 79.691-4.7546 133.63-19.229 239.91-10.477 165.52 13.675 203.69 64.923 300.8 119.54 0.6682-40.075-3.0645-76.666-10.961-110.5-7.8779-48.004-24.041-87.6-66.3-139.69-14.431-18.902-30.81-36.957-49.087-54.385-45.454-46.296-89.06-74.899-127.32-96.183-1.5279-0.95743-3.0168-1.9206-4.5574-2.8769-4.26-2.6451-9.6792-5.2971-15.657-7.9807-64.11-33.27-109.6-50.43-116.59-109.59-4.34-31.77-16.67-790.73-442.18-1273.6-178.99-198.11-28.61-239.71-27.51-239.71 1.136 0-32.857-75.484-84.82-95.007-49.733-20.322-166.07-2.7342-263.65 12.96-40.224-21.206-332.19-196.58-762.75-195.57z" fill="url(#a)"/>
</g>
</svg>
